<svg xmlns="http://www.w3.org/2000/svg" xmlns:xlink="http://www.w3.org/1999/xlink" version="1.1" x="0px" y="0px" viewBox="0 0 512 640" enable-background="new 0 0 512 512" xml:space="preserve"><g><path d="M227.595,255.372l-69.652-69.653c-25.624,23.188-54.748,41.467-86.746,54.436c-22.999,9.313-46.81,15.656-71.184,18.968   c0.703,58.063,21.03,115.936,61.013,162.807L227.595,255.372z"/><path d="M511.956,254.247c-0.375-59.092-21.124-118.059-62.199-165.525l-166.664,166.65l69.871,69.841   c24.78-21.779,52.748-39.029,83.342-51.436C460.709,263.871,486.036,257.372,511.956,254.247z"/><path d="M130.132,157.907L61.604,89.378C29.104,127.251,9.449,172.344,2.669,218.967C48.729,211.217,93.07,190.874,130.132,157.907   z"/><path d="M89.383,61.629l68.027,68.029c30.749-37.155,49.437-80.904,55.998-126.121C168.755,11.037,125.726,30.38,89.383,61.629z"/><path d="M353.026,380.805c-32.217,37.529-51.811,82.153-58.747,128.37c46.17-6.999,90.809-26.562,128.322-58.777L353.026,380.805z"/><path d="M511.987,255.934v0.156C511.987,256.028,511.987,255.997,511.987,255.934z"/><path d="M253.469,0.1c-3.017,26.562-9.608,52.529-19.733,77.498c-11.843,29.217-28.107,55.966-48.451,79.935l70.06,70.06   L421.913,61.069C372.385,18.818,310.544-1.494,249.188,0.1H253.469z"/><path d="M380.775,353.057l69.59,69.561c32.218-37.498,51.813-82.121,58.763-128.309   C462.959,301.245,418.305,320.838,380.775,353.057z"/><path d="M254.251,511.987c3.094-25.905,9.625-51.248,19.529-75.653c12.406-30.593,29.655-58.561,51.42-83.372l-69.855-69.841   L88.695,449.803C136.162,490.863,195.144,511.612,254.251,511.987z"/></g><text x="0" y="527" fill="#000000" font-size="5px" font-weight="bold" font-family="'Helvetica Neue', Helvetica, Arial-Unicode, Arial, Sans-serif">Created by Baboon designs</text><text x="0" y="532" fill="#000000" font-size="5px" font-weight="bold" font-family="'Helvetica Neue', Helvetica, Arial-Unicode, Arial, Sans-serif">from the Noun Project</text></svg>