<svg xmlns="http://www.w3.org/2000/svg" xmlns:xlink="http://www.w3.org/1999/xlink" version="1.1" x="0px" y="0px" viewBox="0 0 60 75" enable-background="new 0 0 60 60" xml:space="preserve"><path d="M30,6C16.7700195,6,6,16.7700195,6,30c0,13.2301025,10.7700195,24,24,24c13.2399902,0,24-10.7698975,24-24  C54,16.7700195,43.2399902,6,30,6z M16.1900024,28.0700684c-2.0299683,0-3.6799927-1.6500244-3.6799927-3.6799316  c0-2.0300293,1.6500244-3.6900635,3.6799927-3.6900635c2.0300293,0,3.6799927,1.6600342,3.6799927,3.6900635  C19.8699951,26.4200439,18.2200317,28.0700684,16.1900024,28.0700684z M21.0300293,16.0200195  c0-2.0300293,1.6499634-3.6899414,3.6799927-3.6899414c2.0299683,0,3.6799927,1.6599121,3.6799927,3.6899414  s-1.6500244,3.6800537-3.6799927,3.6800537C22.6799927,19.7000732,21.0300293,18.0500488,21.0300293,16.0200195z   M27.3900146,32.0800781c-2.7600098,0-5-2.25-5-5.0100098s2.2399902-5.0100098,5-5.0100098s5.0100098,2.25,5.0100098,5.0100098  S30.1500244,32.0800781,27.3900146,32.0800781z"/><text x="0" y="75" fill="#000000" font-size="5px" font-weight="bold" font-family="'Helvetica Neue', Helvetica, Arial-Unicode, Arial, Sans-serif">Created by DinosoftLabs</text><text x="0" y="80" fill="#000000" font-size="5px" font-weight="bold" font-family="'Helvetica Neue', Helvetica, Arial-Unicode, Arial, Sans-serif">from the Noun Project</text></svg>