<svg xmlns:dc="http://purl.org/dc/elements/1.1/" xmlns:cc="http://creativecommons.org/ns#" xmlns:rdf="http://www.w3.org/1999/02/22-rdf-syntax-ns#" xmlns:svg="http://www.w3.org/2000/svg" xmlns="http://www.w3.org/2000/svg" xmlns:sodipodi="http://sodipodi.sourceforge.net/DTD/sodipodi-0.dtd" xmlns:inkscape="http://www.inkscape.org/namespaces/inkscape" version="1.1" x="0px" y="0px" viewBox="0 0 100 125"><g transform="translate(0,-952.36218)"><g transform="translate(14.000001,965.34174)"><path d="m 28.984251,0.03543307 c -3.295275,0 -5.988189,2.65748023 -5.988189,5.95275583 0,3.2952755 2.692914,5.9527561 5.988189,5.9527561 3.330709,0 6.023622,-2.6574806 6.023622,-5.9527561 0,-3.2952756 -2.692913,-5.95275583 -6.023622,-5.95275583 z m 35.999999,0 -3.968504,17.89370093 -6.023622,2.976377 -5.988188,15.909449 5.988188,12.933071 -1.984252,4.96063 -13.003936,2.976377 -0.992126,5.988189 -20.019685,4.96063 0,3.968504 53.007873,0 0,-70.582676 z M 12.011811,9.9566928 0.99212595,27.850393 7.0157478,30.862204 17.999999,13.925197 z m 10.807086,2.9763782 c -2.125984,0.07087 -4.535433,1.204724 -5.740157,3.153543 L 7.0157478,31.85433 l 0,21.862205 L 0,68.633857 c 0,0.992126 0,3.968504 1.9842519,4.96063 2.019685,0.992126 5.0314959,0 6.0236219,-0.992126 l 8.0078742,-16.901575 0,-12.93307 10.984251,4.996063 0.992126,8.929133 c 0,0.992126 2.019685,4.003937 4.996063,4.003937 3.011811,0 4.003937,-3.011811 4.003937,-4.003937 l -1.984252,-13.925196 -12.011811,-6.944882 5.988189,-9.956693 4.003937,4.996063 12.011811,2.976378 c 1.027559,0.248032 1.984252,0 3.011811,-1.984252 0.992126,-1.984252 0,-3.011811 -1.027559,-4.003937 L 35.999999,24.874015 26.007873,13.925197 c -0.744094,-0.744095 -1.913386,-1.062992 -3.188976,-0.992126 z" style="" fill="#000000" fill-opacity="1" fill-rule="nonzero" stroke="none"/></g></g><text x="0" y="115" fill="#000000" font-size="5px" font-weight="bold" font-family="'Helvetica Neue', Helvetica, Arial-Unicode, Arial, Sans-serif">Created by Orin zuu</text><text x="0" y="120" fill="#000000" font-size="5px" font-weight="bold" font-family="'Helvetica Neue', Helvetica, Arial-Unicode, Arial, Sans-serif">from the Noun Project</text></svg>